<svg width="10" height="18" viewBox="0 0 10 18" fill="none" xmlns="http://www.w3.org/2000/svg">
<path fill-rule="evenodd" clip-rule="evenodd" d="M3.7399 2.15641C4.56038 1.33594 5.67317 0.875 6.8335 0.875H9.0835C9.42867 0.875 9.7085 1.15482 9.7085 1.5V4.5C9.7085 4.84518 9.42867 5.125 9.0835 5.125H6.8335C6.80034 5.125 6.76855 5.13817 6.74511 5.16161C6.72167 5.18505 6.7085 5.21685 6.7085 5.25V6.875H9.0835C9.27596 6.875 9.45768 6.96367 9.57612 7.11537C9.69457 7.26706 9.73651 7.46487 9.68984 7.65158L8.93984 10.6516C8.87028 10.9298 8.62029 11.125 8.3335 11.125H6.7085V16.5C6.7085 16.8452 6.42867 17.125 6.0835 17.125H3.0835C2.73832 17.125 2.4585 16.8452 2.4585 16.5V11.125H0.833496C0.488318 11.125 0.208496 10.8452 0.208496 10.5V7.5C0.208496 7.15482 0.488318 6.875 0.833496 6.875H2.4585V5.25C2.4585 4.08968 2.91943 2.97688 3.7399 2.15641ZM6.8335 2.125C6.00469 2.125 5.20984 2.45424 4.62379 3.04029C4.03774 3.62634 3.7085 4.4212 3.7085 5.25V7.5C3.7085 7.84518 3.42867 8.125 3.0835 8.125H1.4585V9.875H3.0835C3.42867 9.875 3.7085 10.1548 3.7085 10.5V15.875H5.4585V10.5C5.4585 10.1548 5.73832 9.875 6.0835 9.875H7.84551L8.28301 8.125H6.0835C5.73832 8.125 5.4585 7.84518 5.4585 7.5V5.25C5.4585 4.88533 5.60336 4.53559 5.86122 4.27773C6.11909 4.01987 6.46882 3.875 6.8335 3.875H8.4585V2.125H6.8335Z" fill="#5E6166"/>
</svg>
