<svg width="18" height="18" viewBox="0 0 18 18" fill="none" xmlns="http://www.w3.org/2000/svg">
<path fill-rule="evenodd" clip-rule="evenodd" d="M0.875 9C0.875 4.51295 4.51295 0.875 9 0.875C11.1416 0.875 13.0836 1.71038 14.5329 3.06103C14.6569 3.17664 14.7287 3.3377 14.7317 3.50725C14.7346 3.6768 14.6686 3.84028 14.5487 3.96019L12.4273 6.08157C12.1933 6.31563 11.8173 6.32661 11.57 6.1066C10.884 5.49638 9.98641 5.125 9 5.125C6.86005 5.125 5.125 6.86005 5.125 9C5.125 11.1399 6.86005 12.875 9 12.875C10.3532 12.875 11.5435 12.1794 12.2357 11.125H9C8.65482 11.125 8.375 10.8452 8.375 10.5V7.5C8.375 7.15482 8.65482 6.875 9 6.875H16.3541C16.6525 6.875 16.9092 7.08588 16.9672 7.37854C17.0693 7.89396 17.125 8.45665 17.125 9C17.125 13.4871 13.4871 17.125 9 17.125C4.51295 17.125 0.875 13.4871 0.875 9ZM9 2.125C5.2033 2.125 2.125 5.2033 2.125 9C2.125 12.7967 5.2033 15.875 9 15.875C12.7967 15.875 15.875 12.7967 15.875 9C15.875 8.7104 15.8562 8.41337 15.8211 8.125H9.625V9.875H13.2386C13.4416 9.875 13.6319 9.97354 13.749 10.1393C13.8662 10.305 13.8955 10.5173 13.8278 10.7086C13.1243 12.6955 11.2329 14.125 9 14.125C6.1697 14.125 3.875 11.8303 3.875 9C3.875 6.1697 6.1697 3.875 9 3.875C10.0944 3.875 11.106 4.221 11.9364 4.80475L13.1857 3.55537C12.0255 2.65969 10.5765 2.125 9 2.125Z" fill="#5E6166"/>
</svg>
