<svg width="20" height="20" viewBox="0 0 20 20" fill="none" xmlns="http://www.w3.org/2000/svg">
<circle cx="10" cy="10" r="8.75" stroke="#F6F8FB" stroke-width="2.5"/>
<mask id="mask0_4647_624" style="mask-type:alpha" maskUnits="userSpaceOnUse" x="0" y="0" width="20" height="20">
<circle cx="10" cy="10" r="8.75" stroke="#FF4869" stroke-width="2.5"/>
</mask>
<g mask="url(#mask0_4647_624)">
<mask id="path-3-inside-1_4647_624" fill="white">
<path d="M2.78158e-06 10C2.89638e-06 8.68678 0.25866 7.38642 0.761207 6.17317C1.26376 4.95991 2.00035 3.85752 2.92894 2.92893C3.85752 2.00035 4.95991 1.26375 6.17317 0.761204C7.38642 0.258658 8.68678 9.18316e-07 10 1.03312e-06L10 2.5C9.01509 2.5 8.03982 2.69399 7.12988 3.0709C6.21993 3.44781 5.39314 4.00026 4.6967 4.6967C4.00026 5.39314 3.44782 6.21993 3.07091 7.12987C2.694 8.03982 2.5 9.01509 2.5 10L2.78158e-06 10Z"/>
</mask>
<path d="M2.78158e-06 10C2.89638e-06 8.68678 0.25866 7.38642 0.761207 6.17317C1.26376 4.95991 2.00035 3.85752 2.92894 2.92893C3.85752 2.00035 4.95991 1.26375 6.17317 0.761204C7.38642 0.258658 8.68678 9.18316e-07 10 1.03312e-06L10 2.5C9.01509 2.5 8.03982 2.69399 7.12988 3.0709C6.21993 3.44781 5.39314 4.00026 4.6967 4.6967C4.00026 5.39314 3.44782 6.21993 3.07091 7.12987C2.694 8.03982 2.5 9.01509 2.5 10L2.78158e-06 10Z" stroke="#FF4869" stroke-width="5" mask="url(#path-3-inside-1_4647_624)"/>
</g>
</svg>
