<svg width="40" height="40" viewBox="0 0 40 40" fill="none" xmlns="http://www.w3.org/2000/svg">
<path d="M20 40C31.0457 40 40 31.0457 40 20C40 8.9543 31.0457 0 20 0C8.9543 0 0 8.9543 0 20C0 31.0457 8.9543 40 20 40Z" fill="#FF4869"/>
<path d="M20.4882 10.0734C21.0678 10.1982 21.5535 10.4638 21.9294 10.8619C23.2766 12.2597 22.838 14.5397 21.0599 15.3517C20.6605 15.5313 20.488 15.5625 19.9241 15.5625C19.3602 15.5625 19.1878 15.5313 18.7884 15.3517C16.3679 14.2429 16.6814 10.7371 19.2583 10.0968C19.7675 9.97195 19.9789 9.97195 20.488 10.0734L20.4882 10.0734ZM13.36 12.8064C13.9396 12.9312 14.4253 13.1968 14.8012 13.5949C15.8742 14.7036 15.843 16.4839 14.7385 17.5303C13.6497 18.5765 11.9421 18.5765 10.8533 17.5303C9.27111 16.0311 9.9995 13.353 12.13 12.8297C12.6392 12.7049 12.8506 12.7049 13.3597 12.8063L13.36 12.8064ZM27.7732 12.8064C28.3528 12.9312 28.8385 13.1968 29.2144 13.5949C30.2874 14.7036 30.2562 16.4839 29.1517 17.5303C28.0629 18.5765 26.3553 18.5765 25.2665 17.5303C23.6843 16.0311 24.4127 13.353 26.5432 12.8297C27.0524 12.7049 27.2638 12.7049 27.7729 12.8063L27.7732 12.8064ZM20.7863 18.5377C23.4965 18.7562 25.9326 20.0057 27.1234 21.7936C28.1574 23.3239 28.1574 25.2292 27.1234 26.7598C26.1444 28.2278 24.28 29.3677 22.118 29.8283C21.4444 29.9688 21.045 30 19.9247 30C18.8047 30 18.405 29.9688 17.7314 29.8283C12.397 28.6962 10.2353 24.1361 13.478 20.8801C14.4806 19.8808 16.1177 19.0531 17.7314 18.7329C18.593 18.569 19.7757 18.4285 20.0421 18.4674C20.1283 18.483 20.465 18.5142 20.7862 18.5376L20.7863 18.5377Z" fill="white"/>
</svg>
