<svg width="26" height="20" viewBox="0 0 26 20" fill="none" xmlns="http://www.w3.org/2000/svg">
<path fill-rule="evenodd" clip-rule="evenodd" d="M25.9163 9.99999C25.9163 9.30963 25.3567 8.74999 24.6663 8.74999H1.33301C0.642651 8.74999 0.0830078 9.30963 0.0830078 9.99999C0.0830078 10.6903 0.642651 11.25 1.33301 11.25H24.6663C25.3567 11.25 25.9163 10.6903 25.9163 9.99999Z" fill="black"/>
<path fill-rule="evenodd" clip-rule="evenodd" d="M25.9163 1.66666C25.9163 0.976301 25.3567 0.416656 24.6663 0.416656H1.33301C0.642651 0.416656 0.0830078 0.976301 0.0830078 1.66666C0.0830078 2.35701 0.642651 2.91666 1.33301 2.91666H24.6663C25.3567 2.91666 25.9163 2.35701 25.9163 1.66666Z" fill="black"/>
<path fill-rule="evenodd" clip-rule="evenodd" d="M25.9163 18.3333C25.9163 17.643 25.3567 17.0833 24.6663 17.0833H1.33301C0.642651 17.0833 0.0830078 17.643 0.0830078 18.3333C0.0830078 19.0237 0.642651 19.5833 1.33301 19.5833H24.6663C25.3567 19.5833 25.9163 19.0237 25.9163 18.3333Z" fill="black"/>
</svg>
