<svg width="25" height="25" viewBox="0 0 25 25" fill="none" xmlns="http://www.w3.org/2000/svg">
<path fill-rule="evenodd" clip-rule="evenodd" d="M15.1805 16.5947C11.6468 19.4249 6.47425 19.2022 3.19854 15.9265C-0.31618 12.4117 -0.31618 6.71326 3.19854 3.19854C6.71326 -0.31618 12.4117 -0.316179 15.9265 3.19854C19.2022 6.47425 19.4249 11.6468 16.5947 15.1805L23.4689 22.0547C23.8594 22.4452 23.8594 23.0784 23.4689 23.4689C23.0784 23.8594 22.4452 23.8594 22.0547 23.4689L15.1805 16.5947ZM4.61275 14.5122C1.87908 11.7786 1.87908 7.34642 4.61275 4.61275C7.34642 1.87908 11.7786 1.87908 14.5122 4.61275C17.2439 7.34442 17.2459 11.7721 14.5183 14.5062C14.5162 14.5082 14.5142 14.5102 14.5122 14.5122C14.5102 14.5142 14.5082 14.5162 14.5062 14.5183C11.7721 17.2459 7.34442 17.2439 4.61275 14.5122Z" fill="#B7BEC7" stroke="#B7BEC7" stroke-linecap="round"/>
</svg>
