<svg width="18" height="16" viewBox="0 0 18 16" fill="none" xmlns="http://www.w3.org/2000/svg">
<path fill-rule="evenodd" clip-rule="evenodd" d="M11.5178 0.786239C11.9414 0.71367 12.4159 0.68944 12.8623 0.764976C13.6597 0.899878 14.3963 1.27048 14.9785 1.82612C15.3591 1.83472 15.7331 1.75975 16.064 1.65286C16.3441 1.5624 16.5807 1.45318 16.7465 1.36681C16.8289 1.32387 16.8926 1.28724 16.934 1.26244C16.9547 1.25006 16.9697 1.24069 16.9786 1.23503L16.9865 1.22998C17.2339 1.0652 17.5632 1.09727 17.774 1.30686C17.9848 1.5165 18.0187 1.8456 17.8552 2.09385C17.6821 2.3566 17.4418 2.82499 17.1726 3.34979C17.1302 3.4323 17.0872 3.51622 17.0436 3.60094C16.8892 3.90091 16.7308 4.20409 16.5833 4.4642C16.4906 4.62752 16.3915 4.79333 16.2916 4.93662V5.16477C16.2979 6.00279 16.2018 6.83644 16.0067 7.64746C15.884 8.15774 15.7221 8.65907 15.5219 9.14689C15.0032 10.4108 14.2379 11.5586 13.2706 12.5234C12.3033 13.4882 11.1535 14.2506 9.8883 14.7661C8.62421 15.281 7.27026 15.5392 5.90538 15.5255C3.92679 15.5272 1.98982 14.9572 0.32755 13.8839C0.0827157 13.7258 -0.0203667 13.4195 0.0790802 13.1456C0.178527 12.8716 0.454105 12.7028 0.743332 12.7386C0.993632 12.7696 1.24564 12.7847 1.49785 12.7838C2.40406 12.7813 3.29301 12.5811 4.10456 12.2039C3.8466 12.0865 3.60032 11.9417 3.37019 11.771C2.69376 11.2694 2.19051 10.5695 1.93045 9.76852C1.86287 9.56039 1.90907 9.33207 2.05225 9.16658C2.05481 9.16361 2.0574 9.16068 2.06001 9.15777C1.90707 9.0214 1.76397 8.87291 1.63222 8.71322C1.03946 7.99472 0.713059 7.09352 0.708242 6.16208L0.708225 6.15884L0.708233 6.11718C0.708233 5.89562 0.825527 5.69063 1.01653 5.57836C1.06495 5.5499 1.11627 5.52848 1.16906 5.51411C0.887115 4.95154 0.740496 4.33034 0.741566 3.70012C0.741233 2.98615 0.92773 2.28451 1.28253 1.66493C1.38496 1.48606 1.56898 1.3692 1.77442 1.35255C1.97986 1.3359 2.1803 1.42162 2.31019 1.58165C3.11232 2.57 4.11339 3.37854 5.24838 3.95477C5.83183 4.25098 6.44395 4.48239 7.07378 4.64609C7.4269 4.73787 7.78557 4.80835 8.14788 4.85704C8.13192 4.25433 8.25094 3.65194 8.50071 3.09533C8.86712 2.27881 9.49417 1.60699 10.2835 1.18525C10.6178 1.00664 11.0616 0.864381 11.5178 0.786239ZM2.1193 7.07582C2.22733 7.37989 2.38806 7.66516 2.59644 7.91774C3.00587 8.41403 3.57416 8.75366 4.20518 8.87919C4.48625 8.9351 4.69328 9.17501 4.70747 9.46124C4.72165 9.74746 4.53936 10.0067 4.2652 10.0901C4.03812 10.1592 3.80547 10.2074 3.57017 10.2341C3.72566 10.4345 3.90856 10.6141 4.11473 10.7669C4.58239 11.1137 5.14651 11.3061 5.7286 11.3173C5.9927 11.3224 6.22508 11.4929 6.30911 11.7434C6.39313 11.9938 6.31064 12.27 6.10305 12.4334C5.22875 13.1213 4.21774 13.601 3.14645 13.8459C4.03436 14.1303 4.96556 14.2767 5.90747 14.2755L5.91472 14.2755C7.11477 14.288 8.30527 14.0612 9.41669 13.6084C10.5281 13.1556 11.5382 12.4859 12.3879 11.6384C13.2376 10.7909 13.9099 9.78256 14.3655 8.67231C14.5414 8.24379 14.6836 7.8034 14.7914 7.35514C14.9629 6.64201 15.0473 5.90895 15.0416 5.17206L15.0416 5.16718V4.72551C15.0416 4.57396 15.0966 4.42758 15.1965 4.31361C15.2542 4.24774 15.3552 4.09561 15.4961 3.84736C15.6299 3.61142 15.7781 3.32816 15.9322 3.02884C15.9415 3.01074 15.9508 2.99254 15.9602 2.97427C15.5606 3.06105 15.1076 3.10654 14.6327 3.05522C14.4824 3.03897 14.343 2.96873 14.2404 2.85753C13.8214 2.40308 13.2633 2.10058 12.6538 1.99746C12.3834 1.95171 12.0564 1.96218 11.7288 2.01829C11.3729 2.07926 11.0631 2.18594 10.8726 2.28775C10.3274 2.57906 9.89424 3.0431 9.64115 3.60709C9.38807 4.17107 9.32934 4.80311 9.47417 5.40408C9.52034 5.59567 9.47345 5.79782 9.34763 5.94951C9.22182 6.1012 9.03182 6.18467 8.835 6.17471C8.13214 6.13916 7.43675 6.03195 6.75935 5.8559C6.04277 5.66965 5.34633 5.40636 4.68251 5.06935C3.7052 4.57318 2.81515 3.9256 2.04445 3.15252C2.00929 3.3322 1.99144 3.51556 1.99157 3.7001L1.99157 3.7017C1.99069 4.16063 2.10332 4.61265 2.31941 5.01753C2.5355 5.4224 2.84836 5.76756 3.23011 6.02227C3.4618 6.17686 3.56324 6.46609 3.47886 6.73152C3.39448 6.99695 3.14465 7.17452 2.86623 7.16694C2.61407 7.16008 2.36402 7.12941 2.1193 7.07582Z" fill="#5E6166"/>
</svg>
